<svg width="20" height="20" viewBox="0 0 20 20" fill="none" xmlns="http://www.w3.org/2000/svg">
<path fill-rule="evenodd" clip-rule="evenodd" d="M1.04102 9.99984C1.04102 5.05229 5.0518 1.0415 9.99935 1.0415C14.9469 1.0415 18.9577 5.05229 18.9577 9.99984C18.9577 14.9474 14.9469 18.9582 9.99935 18.9582C5.0518 18.9582 1.04102 14.9474 1.04102 9.99984ZM10.6243 6.6665C10.6243 6.32133 10.3445 6.0415 9.99935 6.0415C9.65417 6.0415 9.37435 6.32133 9.37435 6.6665V9.37484H6.66602C6.32084 9.37484 6.04102 9.65466 6.04102 9.99984C6.04102 10.345 6.32084 10.6248 6.66602 10.6248H9.37435V13.3332C9.37435 13.6783 9.65417 13.9582 9.99935 13.9582C10.3445 13.9582 10.6243 13.6783 10.6243 13.3332V10.6248H13.3327C13.6779 10.6248 13.9577 10.345 13.9577 9.99984C13.9577 9.65466 13.6779 9.37484 13.3327 9.37484H10.6243V6.6665Z" fill="#FF5B4F"/>
</svg>
