<svg width="25" height="24" viewBox="0 0 25 24" fill="none" xmlns="http://www.w3.org/2000/svg">
<path fill-rule="evenodd" clip-rule="evenodd" d="M5.49922 3.8002C5.18096 3.8002 4.87573 3.92662 4.65069 4.15167C4.42565 4.37671 4.29922 4.68194 4.29922 5.0002V19.0002C4.29922 19.3185 4.42565 19.6237 4.65069 19.8487C4.87573 20.0738 5.18096 20.2002 5.49922 20.2002H9.49922C9.94105 20.2002 10.2992 20.5584 10.2992 21.0002C10.2992 21.442 9.94105 21.8002 9.49922 21.8002H5.49922C4.75661 21.8002 4.04442 21.5052 3.51932 20.9801C2.99422 20.455 2.69922 19.7428 2.69922 19.0002V5.0002C2.69922 4.25759 2.99422 3.5454 3.51932 3.0203C4.04442 2.49519 4.75661 2.2002 5.49922 2.2002H9.49922C9.94105 2.2002 10.2992 2.55837 10.2992 3.0002C10.2992 3.44202 9.94105 3.8002 9.49922 3.8002H5.49922Z" fill="white"/>
<path fill-rule="evenodd" clip-rule="evenodd" d="M15.9335 6.43451C16.246 6.12209 16.7525 6.12209 17.0649 6.43451L22.0649 11.4345C22.3773 11.7469 22.3773 12.2535 22.0649 12.5659L17.0649 17.5659C16.7525 17.8783 16.246 17.8783 15.9335 17.5659C15.6211 17.2535 15.6211 16.7469 15.9335 16.4345L20.3678 12.0002L15.9335 7.56588C15.6211 7.25346 15.6211 6.74693 15.9335 6.43451Z" fill="white"/>
<path fill-rule="evenodd" clip-rule="evenodd" d="M8.69922 12.0002C8.69922 11.5584 9.05739 11.2002 9.49922 11.2002H21.4992C21.941 11.2002 22.2992 11.5584 22.2992 12.0002C22.2992 12.442 21.941 12.8002 21.4992 12.8002H9.49922C9.05739 12.8002 8.69922 12.442 8.69922 12.0002Z" fill="white"/>
</svg>
